<svg width="58" height="53" fill="none" xmlns="http://www.w3.org/2000/svg"><path d="M57.939 48.415l-1.954-7.021c-.244-.977-1.282-1.527-2.259-1.282-.977.244-1.526 1.282-1.282 2.258l.733 2.687-8.73-5.007V25.276c0-.672-.367-1.221-.916-1.588l-12.7-7.326V6.288l1.954 2.015c.367.366.855.55 1.282.55.428 0 .916-.184 1.282-.489.733-.671.733-1.831.062-2.564L30.343.61A1.732 1.732 0 0029 0c-.488 0-.977.183-1.282.55L22.65 5.738c-.672.733-.672 1.893.06 2.564.733.672 1.893.672 2.565-.06l1.954-2.016V16.3l-12.821 7.45c-.55.305-.915.915-.915 1.587v14.775l-8.73 5.006.793-2.686a1.875 1.875 0 00-1.282-2.26 1.875 1.875 0 00-2.26 1.283l-1.953 6.96a1.87 1.87 0 00.183 1.404c.244.427.672.733 1.1.855l7.081 1.77c.183.061.306.061.428.061.793 0 1.526-.55 1.77-1.343.244-.977-.366-1.954-1.343-2.198l-2.686-.732 8.73-5.007 12.76 7.388c.306.183.61.244.916.244.305 0 .61-.061.916-.244l12.76-7.388 8.73 5.007-2.747.671c-.977.244-1.587 1.221-1.343 2.198.183.794.977 1.343 1.77 1.343.122 0 .306 0 .428-.06l7.143-1.71c.488-.122.855-.428 1.099-.855a1.87 1.87 0 00.183-1.404zM17.156 28.45l10.012 5.8v11.6l-10.073-5.8v-11.6h.06zM29 31.076l-10.074-5.8L29 19.476l10.074 5.8L29 31.076zm1.832 14.774v-11.6l10.073-5.8v11.6l-10.073 5.8z" fill="#fff"/></svg>