<svg width="204" height="204" fill="none" xmlns="http://www.w3.org/2000/svg"><path d="M18.39 201.058h.035l144.333 1.807s0 0 0 0a13.872 13.872 0 009.856-3.944h0a13.879 13.879 0 004.181-9.758v0a13.867 13.867 0 00-3.945-9.856h0a13.87 13.87 0 00-9.757-4.181h0l-112.145-1.397-1.186-.015.839-.839L198.89 24.585l.006-.005A13.866 13.866 0 00189.132.773h-.001a13.868 13.868 0 00-9.844 4.199l-.005.005-148.29 148.29-.839.839-.015-1.187-1.397-112.144a13.871 13.871 0 00-4.18-9.758l.349-.358-.35.358a13.858 13.858 0 00-9.856-3.945 13.863 13.863 0 00-9.757 4.18h0a13.863 13.863 0 00-3.943 9.859l1.802 144.406v.035l-.004.034a13.867 13.867 0 004.099 11.681l.003.004.002.002s0 0 0 0m11.484 3.785l.029.5a14.366 14.366 0 01-11.863-3.928l.354-.354-.003-.003m11.483 3.785l-.036.005a13.87 13.87 0 01-11.447-3.79m11.483 3.785l-11.483-3.785" fill="#fff" stroke="#D79662"/></svg>