<svg width="50" height="50" fill="none" xmlns="http://www.w3.org/2000/svg"><g clip-path="url(#clip0_1_50)"><path d="M28 23.059a.976.976 0 01-.286-.69V10.202a.976.976 0 011.951 0v9.813L47.266 2.414a.976.976 0 011.38 1.38l-17.602 17.6h9.813a.975.975 0 110 1.951H28.691a.977.977 0 01-.69-.286H28zm20.446 21.783l-.78.78c-2.535 2.535-5.551 3.983-8.964 4.303a15.93 15.93 0 01-1.475.068c-2.524 0-5.248-.578-8.117-1.726-7.35-2.94-13.73-8.843-16.132-11.245-2.401-2.402-8.304-8.781-11.244-16.131C.359 17.453-.199 14.226.076 11.299c.32-3.412 1.768-6.429 4.303-8.964l.78-.78c2-2 5.254-2 7.254 0l5.401 5.402c2 2 2 5.254 0 7.254l-1.829 1.829a3.147 3.147 0 00-.395 4.013c1.821 2.726 4.008 5.37 6.498 7.86s5.134 4.676 7.86 6.498a3.147 3.147 0 004.013-.395l1.83-1.83a5.094 5.094 0 013.627-1.499c1.372 0 2.66.533 3.627 1.5l5.401 5.401c2 2 2 5.253 0 7.254zm-1.38-5.875l-5.401-5.402a3.157 3.157 0 00-2.248-.928c-.85 0-1.65.33-2.247.928l-1.83 1.83a5.079 5.079 0 01-6.476.637c-2.831-1.892-5.576-4.16-8.156-6.74-2.58-2.58-4.848-5.324-6.74-8.156a5.079 5.079 0 01.637-6.477l1.83-1.83a3.182 3.182 0 000-4.494l-5.402-5.402a3.168 3.168 0 00-2.247-.93c-.814 0-1.629.31-2.248.93l-.78.78C1.59 7.883.846 13.417 3.545 20.167c2.805 7.014 8.496 13.16 10.813 15.476 2.316 2.316 8.462 8.007 15.477 10.813 6.749 2.699 12.284 1.954 16.452-2.214l.78-.78a3.184 3.184 0 000-4.496z" fill="#fff"/></g><defs><clipPath id="clip0_1_50"><path fill="#fff" d="M0 0h50v50H0z"/></clipPath></defs></svg>