<svg width="30" height="30" fill="none" xmlns="http://www.w3.org/2000/svg"><g clip-path="url(#clip0_1_376)" fill="#D79662"><path d="M15.068 0c-.008.008-.024.008-.048.008C6.886.008.27 6.623.27 14.758a14.65 14.65 0 003.208 9.139L1.332 28.88a.8.8 0 00.418 1.053c.144.064.305.08.458.056l7.869-1.382c1.575.57 3.231.86 4.903.852 8.134 0 14.75-6.615 14.75-14.75C29.745 6.6 23.178.008 15.068 0zm-.08 27.86a12.89 12.89 0 01-4.541-.829.77.77 0 00-.426-.04L3.397 28.15l1.753-4.076a.808.808 0 00-.129-.843 12.85 12.85 0 01-2.235-3.714 13.07 13.07 0 01-.9-4.766c0-7.25 5.9-13.142 13.142-13.142C22.254 1.59 28.122 7.435 28.13 14.66v.048c0 7.259-5.9 13.15-13.142 13.15z"/><path d="M14.361 11.792h-4.34a.806.806 0 00-.804.803c0 .442.361.804.803.804h4.341a.806.806 0 00.804-.804.806.806 0 00-.804-.803zm5.627 4.018H10.02a.806.806 0 00-.804.804c0 .442.361.804.803.804h9.968a.806.806 0 00.803-.804.806.806 0 00-.803-.804z"/></g><defs><clipPath id="clip0_1_376"><path fill="#fff" d="M0 0h30v30H0z"/></clipPath></defs></svg>