<svg width="58" height="50" fill="none" xmlns="http://www.w3.org/2000/svg"><g fill="#fff"><path d="M55.954 19.047H40.475V1.19A1.19 1.19 0 0039.285 0H1.19A1.19 1.19 0 000 1.19v30.953c0 .657.533 1.19 1.19 1.19h3.572v7.142l12.857-7.143h6.19v10.714c0 .66.534 1.193 1.191 1.193h19.046L52.382 50v-4.76h3.572c.655 0 1.189-.534 1.189-1.194V20.238a1.19 1.19 0 00-1.19-1.19zM17.002 30.954l-.54.298-9.32 5.177v-5.475h-4.76V2.38h35.714v28.573H17.002zM54.76 42.857H50V45.9l-4.771-2.728-.548-.314H26.19v-9.525h13.096c.657 0 1.189-.532 1.189-1.19V21.43h14.286v21.428z"/><path d="M20.24 7.143c-1.865 0-3.346.566-4.403 1.68-1.669 1.761-1.556 4.232-1.55 4.337h.002a1.189 1.189 0 002.378-.065l-.003-.057h.001c0-.016-.054-1.584.912-2.589.589-.614 1.485-.925 2.663-.925 1.416 0 2.369.344 2.915 1.053.433.56.652 1.408.655 2.52 0 .798-.684 1.823-1.93 2.886a14.968 14.968 0 01-2.212 1.549l-.62.338-.001 3.557h.003a1.19 1.19 0 002.381 0l-.003-.07v-2.1c1.455-.903 4.767-3.278 4.762-6.164-.007-3.837-2.12-5.95-5.95-5.95zm-.002 16.667a1.19 1.19 0 100 2.381 1.19 1.19 0 000-2.381z"/></g></svg>