<svg width="120" height="120" fill="none" xmlns="http://www.w3.org/2000/svg"><path fill="#D79662" d="M0 0h120v120H0z"/><path d="M39.66 101a.243.243 0 01-.173-.072L29.07 90.52a.242.242 0 01-.071-.173V21.249c0-.136.109-.245.245-.245h33.87c.065 0 .128.027.174.072l10.416 10.408a.241.241 0 01.071.173v34.55a.244.244 0 01-.245.245H56.59a.252.252 0 01-.173-.072L46.01 55.972a.245.245 0 01.173-.418H62.87V31.902H39.904v68.853a.247.247 0 01-.245.245zM29.49 90.245l9.924 9.919V31.657c0-.135.109-.244.244-.244h23.456c.136 0 .245.109.245.244V55.8a.244.244 0 01-.245.245H46.776l9.919 9.919h16.594V31.759L63.018 21.495H29.489v68.75z" fill="#000"/><path d="M29.49 90.245l9.924 9.919V31.657c0-.135.109-.244.244-.244h23.456c.136 0 .245.109.245.244V55.8a.244.244 0 01-.245.245H46.776l9.919 9.919h16.594V31.759L63.018 21.495H29.489v68.75z" fill="#000"/><path d="M39.662 31.902a.243.243 0 01-.173-.071L29.077 21.419a.244.244 0 010-.347.244.244 0 01.346 0l10.412 10.412a.244.244 0 01-.173.418zm50.81 69.096H56.6a.255.255 0 01-.173-.071L46.011 90.518a.245.245 0 01.174-.418H79.81V21.248a.25.25 0 01.152-.227.242.242 0 01.266.054l10.416 10.408a.242.242 0 01.071.174v69.098a.244.244 0 01-.244.244zm-33.77-.491h33.525V31.756l-9.925-9.92v68.507a.244.244 0 01-.244.245h-33.28l9.924 9.919z" fill="#000"/><path d="M56.702 100.507h33.525V31.756l-9.925-9.92v68.507a.244.244 0 01-.244.245h-33.28l9.924 9.919z" fill="#000"/><path d="M90.468 101a.24.24 0 01-.173-.072L79.883 90.516a.243.243 0 010-.346.244.244 0 01.346 0l10.412 10.412a.246.246 0 010 .346.235.235 0 01-.173.072zM73.531 31.902H63.116a.244.244 0 01-.245-.245c0-.136.11-.244.245-.244H73.53a.244.244 0 110 .49zm-.003 34.553a.243.243 0 01-.173-.071L62.943 55.972a.244.244 0 010-.346.244.244 0 01.346 0l10.412 10.411a.244.244 0 01-.173.418z" fill="#000"/></svg>