<svg width="54" height="42" fill="none" xmlns="http://www.w3.org/2000/svg"><path d="M48.685 25.693a1.139 1.139 0 01-.977-.553L38.342 9.562a1.139 1.139 0 01.393-1.567L51.883.16a1.14 1.14 0 011.167 1.96L40.888 9.368l8.144 13.548 2.465-1.729a1.141 1.141 0 011.31 1.868l-3.467 2.432a1.14 1.14 0 01-.655.206zm-43.762.001c-.233 0-.462-.071-.655-.207L.8 23.056a1.141 1.141 0 011.31-1.868l2.465 1.729L12.72 9.368.557 2.12A1.14 1.14 0 011.724.161l13.147 7.834a1.14 1.14 0 01.394 1.568L5.9 25.14a1.14 1.14 0 01-.977.553z" fill="#fff"/><path d="M41.591 32.292a3.44 3.44 0 01-1.644-.42l-8.079-4.38a1.14 1.14 0 111.088-2.006l8.082 4.382a1.17 1.17 0 001.433-.264c.35-.413.367-1.025.042-1.455a1.301 1.301 0 00-.175-.182l-6.887-5.815-6.92-4.295a1.95 1.95 0 00-1.584-.206l-2.148.653-2.328 2.556a4.805 4.805 0 01-5.173 1.283 2.952 2.952 0 01-1.574-4.231l3.396-6.03c.141-.25.371-.437.644-.526A46.676 46.676 0 0130.007 9.28c.131-.011.264-.002.391.032l7.419 1.935 2.541-.954a1.141 1.141 0 01.802 2.136l-2.88 1.08c-.22.083-.46.096-.689.036l-7.575-1.975c-3.18.302-6.172.9-9.127 1.822l-3.179 5.64a.666.666 0 00-.044.567.66.66 0 00.402.396 2.545 2.545 0 002.715-.67l2.541-2.789a1.14 1.14 0 01.511-.323l2.453-.746a4.237 4.237 0 013.445.451l6.992 4.34a1.1 1.1 0 01.134.097l6.948 5.868c.18.15.348.325.51.531a3.477 3.477 0 01-.104 4.323 3.427 3.427 0 01-2.622 1.215z" fill="#fff"/><path d="M43.423 28.602a1.139 1.139 0 01-.673-2.062 21.255 21.255 0 004.21-4.066 1.141 1.141 0 011.797 1.406 23.547 23.547 0 01-4.662 4.502c-.203.148-.438.22-.672.22zm-5.036 7.353a3.418 3.418 0 01-1.616-.412l-7.672-4.133a1.14 1.14 0 011.082-2.008l7.672 4.133a1.128 1.128 0 001.387-.253 1.11 1.11 0 00.267-.832 1.113 1.113 0 00-.411-.774l-1.057-.861a1.14 1.14 0 111.441-1.769l1.054.86a3.374 3.374 0 011.245 2.343 3.375 3.375 0 01-.817 2.529 3.415 3.415 0 01-2.575 1.177z" fill="#fff"/><path d="M35.327 39.313c-.46 0-.927-.103-1.353-.299l-7.41-3.441a1.14 1.14 0 11.962-2.07l7.403 3.44c.37.17.828.075 1.093-.216a.937.937 0 00-.032-1.305l-.658-.651a1.14 1.14 0 111.605-1.62l.655.648a3.209 3.209 0 01.117 4.464 3.223 3.223 0 01-2.382 1.05z" fill="#fff"/><path d="M30.928 41.787c-.38 0-.767-.06-1.145-.183-1.91-.62-4-1.42-6.386-2.446a1.14 1.14 0 01.902-2.096c2.32.998 4.345 1.774 6.19 2.373a1.42 1.42 0 001.65-.617l.133-.209a1.39 1.39 0 00.195-.898 1.14 1.14 0 012.267-.26 3.704 3.704 0 01-.534 2.376l-.13.204a3.694 3.694 0 01-3.142 1.756zM19.846 14.063c-.09 0-.182-.01-.273-.033a33.858 33.858 0 01-6.75-2.446 1.14 1.14 0 011.012-2.045 31.492 31.492 0 006.282 2.276 1.14 1.14 0 01-.27 2.248zM8.548 28.942c-.312 0-.622-.127-.847-.377-1.129-1.252-2.34-3.079-3.158-4.39a1.14 1.14 0 111.936-1.207c.63 1.01 1.846 2.883 2.916 4.07a1.14 1.14 0 01-.847 1.904z" fill="#fff"/><path d="M9.752 33.355c-1.15 0-2.26-.59-2.838-1.63a1.595 1.595 0 01-.038-.076c-.387-.712-.46-1.628-.182-2.479a8.281 8.281 0 011.043-2.082A11.11 11.11 0 019.49 25.1a3.272 3.272 0 012.332-.859 3.289 3.289 0 012.37 1.118 3.31 3.31 0 01.651 3.152 1.14 1.14 0 01-2.174-.69 1.01 1.01 0 00-.198-.964.985.985 0 00-.719-.336 1.01 1.01 0 00-.73.27 8.844 8.844 0 00-1.399 1.58c-.334.485-.588.99-.762 1.513-.08.247-.067.515.039.709l.025.048c.282.473.902.532 1.326.31a1.14 1.14 0 011.058 2.02c-.496.26-1.03.383-1.556.383zM20.698 42c-.1 0-.2-.004-.299-.013a3.16 3.16 0 01-2.448-1.505 1.488 1.488 0 01-.047-.072c-.425-.727-.524-1.64-.273-2.505.2-.673.495-1.33.881-1.955a1.14 1.14 0 111.942 1.197 5.8 5.8 0 00-.633 1.4c-.073.251-.059.501.04.688l.03.049a.9.9 0 00.711.43c.344.031.686-.104.91-.363.551-.632 1.009-1.299 1.384-1.868.171-.263.345-.533.519-.804.27-.422.226-.923-.082-1.255-.379-.41-1.054-.416-1.45-.03a2.264 2.264 0 00-.14.138 1.14 1.14 0 11-1.679-1.543 3.93 3.93 0 01.25-.25c.6-.585 1.42-.919 2.286-.919.914 0 1.792.385 2.408 1.056a3.277 3.277 0 01.353 3.994c-.204.318-.381.594-.559.865-.418.636-.93 1.382-1.57 2.113A3.362 3.362 0 0120.699 42z" fill="#fff"/><path d="M12.448 36.437c-.24 0-.476-.023-.708-.07-1.024-.21-1.829-.876-2.21-1.828l-.022-.054c-.401-1.036-.29-2.217.29-3.083.924-1.38 2.01-2.684 3.061-3.945.25-.299.499-.597.744-.895a3.594 3.594 0 012.532-1.31c.969-.073 1.918.238 2.594.848.164.148.303.302.427.473.934 1.288.79 3.212-.352 4.679l-.037.048c-.976 1.251-1.983 2.545-3.19 3.762v.001c-.876.88-2.024 1.374-3.13 1.374zm-.814-2.779c.005.01.01.021.013.032.035.089.143.358.55.442.42.085 1.13-.04 1.76-.677 1.111-1.12 2.033-2.304 3.01-3.557l.038-.048c.512-.659.64-1.474.303-1.939a.722.722 0 00-.107-.118c-.21-.189-.55-.293-.898-.265a1.318 1.318 0 00-.94.485c-.247.3-.5.602-.752.905-1.013 1.215-2.06 2.472-2.918 3.753-.192.287-.169.702-.059.987z" fill="#fff"/><path d="M16.127 39.961c-.224 0-.446-.02-.665-.062-1.051-.2-1.893-.864-2.313-1.822a1.426 1.426 0 01-.024-.057c-.359-.846-.323-1.883.095-2.844.742-1.72 1.963-3.297 3.732-4.816 1.474-1.267 3.563-1.343 4.857-.176.161.146.298.295.419.458.954 1.273.872 3.139-.201 4.535l-.038.048c-.896 1.165-1.823 2.368-2.948 3.495l-.001.001c-.796.794-1.867 1.24-2.913 1.24zm-.904-2.835l.015.033c.117.271.337.44.652.5.398.077 1.014-.03 1.538-.552 1.02-1.022 1.862-2.115 2.753-3.273l.038-.049c.444-.577.52-1.325.181-1.777a.848.848 0 00-.12-.13c-.442-.4-1.234-.31-1.841.212-1.5 1.288-2.523 2.594-3.126 3.993-.166.38-.2.777-.09 1.043z" fill="#fff"/></svg>