<svg width="36" height="40" fill="none" xmlns="http://www.w3.org/2000/svg"><path d="M9.817 12.48v1.54c0 .964.395 1.84 1.03 2.476a3.484 3.484 0 002.475 1.03h.238c.965 0 1.841-.394 2.475-1.028a3.493 3.493 0 001.03-2.477v-1.54H9.817zm4.221 15.02a.643.643 0 010-1.285h2.439a.643.643 0 010 1.285h-2.439zm0-1.816a.643.643 0 010-1.285h2.439a.643.643 0 010 1.285h-2.439zm11.407 1.53a.643.643 0 01.908.908l-3.355 3.355h4.869v-8.166h-.72l-4.368 4.368v2.2l2.666-2.665zm-2.666-1.352l2.552-2.551h-2.552v2.551zM33.041 1.9l1.499 5.424c.11.402.132.802.065 1.186a2.66 2.66 0 01-.464 1.095c-.241.337-.541.6-.888.78a2.432 2.432 0 01-1.14.278H3.254c-.416 0-.81-.1-1.163-.288a2.541 2.541 0 01-.895-.813C.962 9.195.814 8.87.751 8.436a2.693 2.693 0 01.103-1.21l1.718-5.423c.171-.54.491-.99.907-1.304A2.463 2.463 0 014.972 0h25.642c.571 0 1.101.193 1.53.531.422.33.741.803.897 1.368zm.265 5.765L31.807 2.24a1.335 1.335 0 00-.454-.702 1.172 1.172 0 00-.739-.254H4.972c-.27 0-.52.087-.72.239a1.328 1.328 0 00-.457.666L2.078 7.613a1.359 1.359 0 00.177 1.226c.123.18.273.317.439.406.162.087.352.133.56.133h28.858c.205 0 .39-.044.55-.127a1.27 1.27 0 00.436-.394c.127-.178.209-.368.243-.564a1.442 1.442 0 00-.035-.629zm-11.17 14.362h6.373c.355 0 .642.288.642.642v9.452a.642.642 0 01-.642.642h-6.372a.643.643 0 01-.642-.642v-9.452c0-.354.287-.642.642-.642zM6.264 38.708V24.083c0-.567.231-1.081.604-1.454.425-.385.866-.603 1.453-.603h9.16c.567 0 1.082.231 1.454.603.372.373.604.887.604 1.454v14.633h9.44c.6 0 1.146-.246 1.541-.641.396-.396.641-.941.641-1.542V18.78a4.73 4.73 0 01-.535.03h-.238a4.777 4.777 0 01-3.38-1.406 4.772 4.772 0 01-.768-.995 4.81 4.81 0 01-.765.993 4.765 4.765 0 01-3.381 1.408h-.238a4.774 4.774 0 01-3.382-1.408 4.75 4.75 0 01-.767-.993c-.21.363-.467.697-.763.992-.9.9-2.11 1.41-3.383 1.41h-.238a4.774 4.774 0 01-3.382-1.409 4.75 4.75 0 01-.766-.993 4.806 4.806 0 01-.765.993 4.765 4.765 0 01-3.381 1.408H4.79c-.181 0-.36-.01-.536-.03v17.753c0 .6.245 1.146.64 1.542a2.18 2.18 0 001.37.633zm11.99.008V24.082a.771.771 0 00-.773-.772H8.32c-.2 0-.407.08-.545.227a.77.77 0 00-.227.545v14.633h10.705zm14.192-20.268v18.085a3.46 3.46 0 01-1.017 2.45A3.457 3.457 0 0128.978 40H6.436a3.46 3.46 0 01-2.45-1.017 3.457 3.457 0 01-1.016-2.45V18.448a4.828 4.828 0 01-1.561-1.044A4.779 4.779 0 010 14.02v-3.486a.642.642 0 011.284 0v3.486c0 .964.395 1.841 1.03 2.476a3.498 3.498 0 002.476 1.029h.238c.963 0 1.839-.395 2.474-1.03a3.484 3.484 0 001.03-2.475v-1.54H3.084a.643.643 0 010-1.285H32.33a.643.643 0 010 1.285h-5.45v1.54c0 .963.396 1.84 1.031 2.475a3.489 3.489 0 002.475 1.03h.238c.928 0 1.815-.368 2.475-1.028a3.494 3.494 0 001.03-2.477v-3.302a.643.643 0 011.285 0v3.302a4.776 4.776 0 01-1.407 3.38 4.829 4.829 0 01-1.563 1.047zm-6.848-5.967H18.35v1.54c0 .963.395 1.84 1.03 2.475a3.484 3.484 0 002.475 1.03h.238c.963 0 1.84-.395 2.474-1.03a3.484 3.484 0 001.03-2.475v-1.54z" fill="#fff"/></svg>