<svg width="40" height="40" fill="none" xmlns="http://www.w3.org/2000/svg"><path d="M36.667 5H3.333A3.337 3.337 0 000 8.333v23.334A3.337 3.337 0 003.333 35h33.334A3.337 3.337 0 0040 31.667V8.333A3.337 3.337 0 0036.667 5zM3.333 6.667h33.334c.122 0 .23.044.346.07-2.886 2.64-12.455 11.395-15.804 14.412-.262.236-.684.518-1.209.518s-.947-.282-1.21-.519C15.442 18.132 5.872 9.378 2.987 6.737c.115-.025.223-.07.346-.07zm-1.666 25V8.333c0-.163.049-.311.093-.46 2.209 2.021 8.886 8.13 13.215 12.066C10.66 23.646 3.98 29.978 1.755 32.101c-.04-.142-.088-.28-.088-.434zm35 1.666H3.333c-.133 0-.251-.046-.375-.076 2.3-2.193 9.021-8.561 13.26-12.188.553.501 1.058.959 1.456 1.317.687.62 1.491.947 2.326.947s1.639-.327 2.325-.946c.398-.359.903-.816 1.456-1.318 4.24 3.627 10.96 9.994 13.261 12.188-.124.03-.242.076-.375.076zm1.666-1.666c0 .154-.048.292-.088.434-2.227-2.124-8.905-8.455-13.22-12.162A6757.933 6757.933 0 0038.24 7.873c.044.149.093.297.093.46v23.334z" fill="#fff"/></svg>