<svg width="40" height="40" fill="none" xmlns="http://www.w3.org/2000/svg"><g fill="#fff"><path d="M20 0C11.852 0 5.224 6.628 5.224 14.776c0 2.683 1.203 5.567 1.253 5.689a23.833 23.833 0 001.708 3.194L18.316 39.01c.415.63 1.029.99 1.684.99s1.269-.36 1.684-.99l10.132-15.35a23.73 23.73 0 001.708-3.195c.05-.12 1.252-3.006 1.252-5.689C34.776 6.628 28.148 0 20 0zm11.92 19.79c-.346.827-1.06 2.16-1.556 2.912L20.232 38.054c-.2.303-.263.303-.463 0L9.637 22.702A21.842 21.842 0 018.08 19.79c-.015-.036-1.118-2.691-1.118-5.014C6.962 7.587 12.811 1.738 20 1.738s13.038 5.85 13.038 13.038c0 2.326-1.106 4.988-1.117 5.015z"/><path d="M20 6.954c-4.314 0-7.823 3.51-7.823 7.823 0 4.313 3.51 7.822 7.823 7.822 4.314 0 7.823-3.51 7.823-7.822 0-4.313-3.51-7.823-7.823-7.823zm0 13.907a6.092 6.092 0 01-6.084-6.084A6.092 6.092 0 0120 8.692a6.092 6.092 0 016.084 6.085A6.092 6.092 0 0120 20.86z"/></g></svg>