<svg width="62" height="80" fill="none" xmlns="http://www.w3.org/2000/svg"><path d="M10.66 80a.244.244 0 01-.173-.072L.07 69.52a.241.241 0 01-.07-.173V.249C0 .113.109.004.245.004h33.87c.065 0 .128.027.174.072l10.416 10.408a.241.241 0 01.071.173v34.55a.244.244 0 01-.245.245h-16.94a.252.252 0 01-.173-.072L17.01 34.972a.245.245 0 01.173-.418H33.87V10.902H10.905v68.853a.246.246 0 01-.245.245zM.49 69.245l9.924 9.92V10.656c0-.135.109-.244.244-.244h23.456c.136 0 .245.109.245.244V34.8a.244.244 0 01-.245.245H17.776l9.919 9.919h16.594V10.759L34.018.495H.489v68.75z" fill="#fff"/><path d="M10.662 10.902a.243.243 0 01-.173-.071L.077.419a.244.244 0 010-.347.244.244 0 01.346 0l10.412 10.412a.244.244 0 01-.173.418zm50.809 69.096h-33.87a.252.252 0 01-.174-.071L17.012 69.518a.245.245 0 01.173-.418H50.81V.248c0-.098.06-.187.152-.226a.242.242 0 01.266.053l10.416 10.408a.242.242 0 01.071.174v69.098a.244.244 0 01-.245.244zm-33.769-.49h33.525V10.755L51.302.836v68.507a.244.244 0 01-.244.245h-33.28l9.924 9.92z" fill="#fff"/><path d="M61.468 80a.243.243 0 01-.173-.072L50.883 69.516a.243.243 0 010-.346.244.244 0 01.346 0l10.412 10.412a.247.247 0 010 .346.237.237 0 01-.173.072zM44.531 10.902H34.116a.244.244 0 01-.245-.245c0-.136.11-.244.245-.244H44.53a.244.244 0 110 .49zm-.003 34.553a.243.243 0 01-.173-.071L33.943 34.972a.244.244 0 010-.346.244.244 0 01.346 0l10.412 10.412a.244.244 0 01-.173.417z" fill="#fff"/></svg>