<svg width="337" height="86" fill="none" xmlns="http://www.w3.org/2000/svg"><path d="M10.66 80a.245.245 0 01-.173-.072L.07 69.52a.241.241 0 01-.07-.173V.249C0 .113.109.004.245.004h33.87c.065 0 .128.027.174.072l10.416 10.408a.242.242 0 01.071.173v34.55a.244.244 0 01-.245.245h-16.94a.252.252 0 01-.173-.072L17.01 34.972a.245.245 0 01.173-.418H33.87V10.902H10.905v68.853a.246.246 0 01-.245.245zM.49 69.245l9.924 9.92V10.656c0-.135.109-.244.244-.244h23.456c.136 0 .245.109.245.244V34.8a.244.244 0 01-.245.245H17.776l9.919 9.919h16.594V10.759L34.018.495H.489v68.75z" fill="#fff"/><path d="M10.662 10.902a.243.243 0 01-.173-.071L.077.419a.244.244 0 010-.347.244.244 0 01.346 0l10.412 10.412a.244.244 0 01-.173.418zm50.809 69.096h-33.87a.252.252 0 01-.174-.071L17.012 69.518a.245.245 0 01.173-.418H50.81V.248c0-.098.06-.187.152-.226a.242.242 0 01.266.053l10.416 10.408a.242.242 0 01.071.174v69.098a.244.244 0 01-.245.244zm-33.769-.49h33.525V10.755L51.302.836v68.507a.244.244 0 01-.244.245h-33.28l9.924 9.92z" fill="#fff"/><path d="M61.468 80a.243.243 0 01-.173-.072L50.883 69.516a.243.243 0 010-.346.244.244 0 01.346 0l10.412 10.412a.247.247 0 010 .346.237.237 0 01-.173.072zM44.531 10.902H34.116a.244.244 0 01-.245-.245c0-.136.11-.244.245-.244H44.53a.244.244 0 110 .49zm-.003 34.553a.243.243 0 01-.173-.071L33.943 34.972a.244.244 0 010-.346.244.244 0 01.346 0l10.412 10.412a.244.244 0 01-.173.417zM86.646 22.42v7.85c0 .476-.275.713-.823.713-.548 0-.823-.237-.823-.713V11.744c0-.477.275-.714.823-.714h5.755c1.36 0 2.523.417 3.493 1.248.97.833 1.455 1.839 1.455 3.019v2.869c0 1.18-.482 2.185-1.447 3.01-.965.83-2.13 1.243-3.501 1.243h-4.932zm0-1.428h4.932c.899 0 1.673-.276 2.327-.829.65-.55.978-1.218.978-1.997v-2.87c0-.778-.327-1.449-.978-2.005-.652-.556-1.428-.836-2.327-.836h-4.932v8.537zm14.809.03v8.55h7.398c.548 0 .823.237.823.714s-.275.714-.823.714h-8.218c-.548 0-.823-.237-.823-.714V11.733c0-.477.275-.714.823-.714h8.218c.548 0 .823.237.823.714s-.275.714-.823.714h-7.398v7.15h4.109c.548 0 .823.237.823.714 0 .476-.275.713-.823.713h-4.109v-.002zm17.853 1.398l5.046 7.506a.702.702 0 01.115.37c0 .192-.085.355-.254.494a.919.919 0 01-.599.207.775.775 0 01-.673-.357l-5.523-8.22h-2.829v7.863c0 .477-.275.714-.823.714-.547 0-.823-.237-.823-.714V11.73c0-.477.276-.714.823-.714h5.755c1.371 0 2.537.417 3.502 1.248.964.834 1.446 1.845 1.446 3.033v2.855c0 1.246-.498 2.27-1.496 3.069-1 .8-2.22 1.198-3.667 1.198zm-4.717-1.428h4.932c.91 0 1.687-.276 2.335-.829.646-.55.97-1.223.97-2.01v-2.856c0-.79-.324-1.463-.97-2.02-.645-.555-1.425-.833-2.335-.833h-4.932v8.548zm14.809.03v8.55h7.398c.548 0 .823.237.823.714s-.275.714-.823.714h-8.218c-.547 0-.823-.237-.823-.714V11.733c0-.477.276-.714.823-.714h8.218c.548 0 .823.237.823.714s-.275.714-.823.714H129.4v7.15h4.109c.548 0 .823.237.823.714 0 .476-.275.713-.823.713H129.4v-.002zm22.998 9.261c0 .477-.275.714-.823.714h-5.752c-1.36 0-2.521-.42-3.485-1.256-.965-.836-1.447-1.845-1.447-3.024V15.3c0-1.18.482-2.188 1.447-3.025.964-.836 2.125-1.256 3.485-1.256h5.752c.548 0 .823.237.823.714s-.275.714-.823.714h-5.752c-.899 0-1.67.28-2.319.842-.646.561-.97 1.231-.97 2.013V26.72c0 .78.324 1.45.97 2.011.646.561 1.42.842 2.319.842h4.932v-8.55h-2.45c-.548 0-.823-.237-.823-.714s.275-.714.823-.714h3.27c.548 0 .823.237.823.714v9.975zm14.812-3.566c0 1.188-.482 2.199-1.447 3.032-.965.834-2.131 1.248-3.501 1.248h-1.643c-1.36 0-2.521-.42-3.485-1.256-.965-.836-1.447-1.845-1.447-3.024V15.3c0-1.18.482-2.188 1.447-3.025.964-.836 2.125-1.256 3.485-1.256h1.643c1.37 0 2.536.417 3.501 1.248.965.834 1.447 1.845 1.447 3.033v11.417zm-1.643 0V15.3c0-.79-.324-1.464-.97-2.02-.646-.555-1.425-.833-2.335-.833h-1.643c-.9 0-1.671.28-2.319.842-.646.561-.97 1.231-.97 2.013V26.72c0 .78.324 1.45.97 2.011.645.561 1.419.842 2.319.842h1.643c.91 0 1.686-.278 2.335-.836.646-.556.97-1.23.97-2.02zm11.275-4.297l5.046 7.506a.702.702 0 01.115.37c0 .192-.085.355-.254.494a.919.919 0 01-.599.207.775.775 0 01-.673-.357l-5.523-8.22h-2.829v7.863c0 .477-.275.714-.823.714-.547 0-.822-.237-.822-.714V11.73c0-.477.275-.714.822-.714h5.755c1.371 0 2.537.417 3.502 1.248.964.834 1.446 1.845 1.446 3.033v2.855c0 1.246-.498 2.27-1.495 3.069-1 .8-2.221 1.198-3.668 1.198zm-4.717-1.428h4.932c.91 0 1.687-.276 2.335-.829.646-.55.97-1.223.97-2.01v-2.856c0-.79-.324-1.463-.97-2.02-.645-.555-1.425-.833-2.335-.833h-4.932v8.548zm24.673 5.725c0 1.188-.482 2.199-1.447 3.032-.964.834-2.13 1.248-3.501 1.248h-1.643c-1.36 0-2.52-.42-3.485-1.256-.965-.836-1.447-1.845-1.447-3.024V15.3c0-1.18.482-2.188 1.447-3.025.965-.836 2.125-1.256 3.485-1.256h1.643c1.371 0 2.537.417 3.501 1.248.965.834 1.447 1.845 1.447 3.033v11.417zm-1.643 0V15.3c0-.79-.324-1.464-.97-2.02-.646-.555-1.425-.833-2.335-.833h-1.643c-.899 0-1.67.28-2.319.842-.646.561-.97 1.231-.97 2.013V26.72c0 .78.324 1.45.97 2.011.646.561 1.42.842 2.319.842h1.643c.91 0 1.687-.278 2.335-.836.646-.556.97-1.23.97-2.02zm16.439-.001c0 1.188-.482 2.2-1.447 3.033-.965.834-2.131 1.248-3.501 1.248h-5.755c-.548 0-.823-.237-.823-.714V11.73c0-.477.275-.714.823-.714h5.755c1.37 0 2.536.417 3.501 1.248.965.834 1.447 1.845 1.447 3.033v11.42zm-1.646 0V15.3c0-.79-.324-1.463-.97-2.019-.646-.555-1.425-.833-2.335-.833h-4.932v17.125h4.932c.91 0 1.687-.278 2.335-.837.649-.555.97-1.228.97-2.019zm6.559-3.34v6.907c0 .477-.275.714-.823.714-.548 0-.823-.237-.823-.714V11.73c0-.477.275-.714.823-.714.548 0 .823.237.823.714v9.262l8.4-9.692c.175-.2.39-.3.641-.3a.9.9 0 01.591.22c.174.148.264.317.264.507 0 .153-.06.295-.182.428l-5.853 6.75 5.934 11.076a.706.706 0 01.082.33c0 .457-.286.683-.855.683a.762.762 0 01-.709-.414l-5.572-10.39-2.741 3.186zm14.795 6.907c0 .477-.275.714-.823.714-.547 0-.822-.237-.822-.714V11.73c0-.477.275-.714.822-.714.548 0 .823.237.823.714v18.553zm9.831.714c-.395 0-.659-.215-.79-.643l-5.752-18.411a.77.77 0 01-.032-.215c0-.458.28-.687.839-.687.406 0 .662.177.771.529l4.964 15.869 4.965-15.87c.109-.35.368-.528.771-.528.559 0 .839.229.839.687a.825.825 0 01-.032.215l-5.752 18.411c-.134.43-.395.643-.791.643zm17.292 0h-6.575c-.548 0-.823-.237-.823-.714V11.73c0-.477.275-.714.823-.714.548 0 .823.237.823.714v17.84h5.752c.548 0 .823.236.823.713s-.275.714-.823.714zm15.632-4.28c0 1.188-.482 2.199-1.447 3.032-.964.834-2.131 1.248-3.501 1.248h-1.643c-1.36 0-2.521-.42-3.485-1.256-.965-.836-1.447-1.845-1.447-3.024V15.3c0-1.18.482-2.188 1.447-3.025.964-.836 2.125-1.256 3.485-1.256h1.643c1.37 0 2.537.417 3.501 1.248.965.834 1.447 1.845 1.447 3.033v11.417zm-1.643 0V15.3c0-.79-.324-1.464-.97-2.02-.646-.555-1.425-.833-2.335-.833h-1.643c-.899 0-1.67.28-2.316.842-.646.561-.97 1.231-.97 2.013V26.72c0 .78.324 1.45.97 2.011.646.561 1.419.842 2.316.842h1.643c.91 0 1.689-.278 2.335-.836.646-.559.97-1.23.97-2.02zm6.559-7.123h7.397c.548 0 .823.237.823.714s-.275.714-.823.714h-7.397v9.261c0 .477-.276.714-.823.714-.548 0-.823-.237-.823-.714V11.73c0-.477.275-.714.823-.714h8.22c.548 0 .823.237.823.714s-.275.714-.823.714h-7.397v7.15zm16.438-7.15h-4.109c-.547 0-.823-.237-.823-.714s.276-.714.823-.714h9.88c.548 0 .823.237.823.714s-.275.714-.823.714h-4.128v17.84c0 .476-.275.713-.822.713-.548 0-.823-.237-.823-.714v-17.84h.002zm10.687 17.126c.548 0 .823.236.823.713s-.275.714-.823.714c-.548 0-.823-.237-.823-.714 0-.474.275-.714.823-.714zm10.469-7.15l5.046 7.506a.71.71 0 01.114.37c0 .192-.084.355-.256.494a.915.915 0 01-.599.207.783.783 0 01-.676-.357l-5.523-8.22h-2.828v7.863c0 .477-.276.714-.823.714-.548 0-.823-.237-.823-.714V11.73c0-.477.275-.714.823-.714h5.752c1.37 0 2.537.417 3.501 1.248.965.834 1.447 1.845 1.447 3.033v2.855c0 1.246-.499 2.27-1.496 3.069-.989.8-2.21 1.198-3.659 1.198zm-4.717-1.428h4.932c.91 0 1.689-.276 2.335-.829.646-.55.97-1.223.97-2.01v-2.856c0-.79-.324-1.463-.97-2.02-.646-.555-1.425-.833-2.335-.833h-4.932v8.548zm24.676 5.725c0 1.188-.483 2.199-1.447 3.032-.965.834-2.131 1.248-3.501 1.248h-1.644c-1.359 0-2.52-.42-3.485-1.256-.964-.836-1.446-1.845-1.446-3.024V11.73c0-.476.275-.714.823-.714.547 0 .822.238.822.714v14.987c0 .779.325 1.45.97 2.01.646.562 1.42.843 2.316.843h1.644c.91 0 1.689-.278 2.335-.837.645-.556.97-1.229.97-2.02V11.729c0-.477.272-.714.823-.714.547 0 .823.237.823.714v14.989h-.003zM87.301 66h-1.092v-9.1h1.092l2.938 4.615 2.938-4.615h1.053V66h-1.092v-7.098l-2.548 4.004h-.741l-2.548-3.991V66zm9.474 0h-1.04v-.377l3.392-8.723h1.132l3.406 8.723V66h-1.118l-.91-2.418H97.71L96.775 66zm2.898-7.592L98.05 62.62h3.237l-1.612-4.212zM106.308 66h-1.131v-9.1h1.131v4.03h1.456l2.639-4.03h1.053v.377l-2.704 4.095 2.873 4.251V66h-1.118l-2.73-4.069h-1.469V66zm9.926.195c-1.101 0-1.959-.286-2.574-.858-.607-.58-.91-1.387-.91-2.418v-2.938c0-1.031.303-1.833.91-2.405.615-.58 1.473-.871 2.574-.871.944 0 1.733.264 2.366.793.632.529.949 1.296.949 2.301v.13h-1.131v-.13c0-.667-.221-1.174-.663-1.521a2.347 2.347 0 00-1.534-.533c-.754 0-1.335.19-1.742.572-.399.373-.598.901-.598 1.586v3.094c0 .685.199 1.218.598 1.599.407.373.988.559 1.742.559.589 0 1.1-.178 1.534-.533.442-.347.663-.854.663-1.521v-.13h1.131v.13c0 1.005-.317 1.772-.949 2.301-.633.529-1.422.793-2.366.793zm6.385-.195h-1.04v-9.1h1.131v7.137l4.563-7.137h1.04V66h-1.131v-7.137L122.618 66zm9.205 0h-1.092v-9.1h1.092l2.938 4.615L137.7 56.9h1.053V66h-1.092v-7.098l-2.548 4.004h-.741l-2.548-3.991V66zm10.514 0v-.377l1.001-2.08-3.211-6.266V56.9h1.053l2.73 5.382 2.366-5.382h1.001v.377L143.416 66h-1.079zm7.412 0h-1.092v-9.1h1.092l2.938 4.615 2.938-4.615h1.053V66h-1.092v-7.098l-2.548 4.004h-.741l-2.548-3.991V66zm15.805.195c-1.101 0-1.959-.286-2.574-.858-.607-.58-.91-1.387-.91-2.418v-2.938c0-1.031.303-1.833.91-2.405.615-.58 1.473-.871 2.574-.871.945 0 1.733.264 2.366.793s.949 1.296.949 2.301v.13h-1.131v-.13c0-.667-.221-1.174-.663-1.521a2.345 2.345 0 00-1.534-.533c-.754 0-1.335.19-1.742.572-.399.373-.598.901-.598 1.586v3.094c0 .685.199 1.218.598 1.599.407.373.988.559 1.742.559.589 0 1.101-.178 1.534-.533.442-.347.663-.854.663-1.521v-.13h1.131v.13c0 1.005-.316 1.772-.949 2.301-.633.529-1.421.793-2.366.793zm9.492-.195H170.9v-9.1h3.822c.78 0 1.383.208 1.807.624.425.407.637.997.637 1.768 0 .98-.394 1.638-1.183 1.976 1.023.295 1.534 1.044 1.534 2.249 0 .797-.216 1.413-.65 1.846-.433.425-1.04.637-1.82.637zm-3.016-4.121v3.12h2.821c.494 0 .871-.134 1.131-.403.269-.269.403-.65.403-1.144 0-.503-.134-.888-.403-1.157-.26-.277-.637-.416-1.131-.416h-2.821zm0-3.978v3.016h2.522c.477 0 .841-.13 1.092-.39.26-.269.39-.641.39-1.118 0-.485-.13-.858-.39-1.118-.251-.26-.624-.39-1.118-.39h-2.496zM185.099 66h-5.681v-9.1h5.668v1.001h-4.537v3.016h3.926v1.001h-3.926v3.081h4.55V66zM190 66h-1.131v-8.099H186.1V56.9h6.656v1.001H190V66zm3.678 0h-1.04v-.377l3.393-8.723h1.131l3.406 8.723V66h-1.118l-.91-2.418h-3.926L193.678 66zm2.899-7.592l-1.625 4.212h3.237l-1.612-4.212zM206.356 66h-1.04v-9.1h1.131v7.137l4.563-7.137h1.04V66h-1.131v-7.137L206.356 66zm15.498 0h-4.147v-9.1h3.822c.78 0 1.382.208 1.807.624.425.407.637.997.637 1.768 0 .98-.394 1.638-1.183 1.976 1.023.295 1.534 1.044 1.534 2.249 0 .797-.217 1.413-.65 1.846-.433.425-1.04.637-1.82.637zm-3.016-4.121v3.12h2.821c.494 0 .871-.134 1.131-.403.269-.269.403-.65.403-1.144 0-.503-.134-.888-.403-1.157-.26-.277-.637-.416-1.131-.416h-2.821zm0-3.978v3.016h2.522c.477 0 .841-.13 1.092-.39.26-.269.39-.641.39-1.118 0-.485-.13-.858-.39-1.118-.251-.26-.624-.39-1.118-.39h-2.496zm10.625 7.254c.736 0 1.313-.195 1.729-.585.424-.399.637-.927.637-1.586v-3.068c0-.659-.213-1.183-.637-1.573-.416-.399-.993-.598-1.729-.598-.746 0-1.326.2-1.742.598-.416.39-.624.914-.624 1.573v3.068c0 .659.208 1.187.624 1.586.416.39.996.585 1.742.585zm-3.497-2.223v-2.964c0-1.014.312-1.811.936-2.392.632-.58 1.486-.871 2.561-.871 1.074 0 1.924.29 2.548.871.632.58.949 1.378.949 2.392v2.964c0 1.014-.317 1.811-.949 2.392-.624.58-1.474.871-2.548.871-1.075 0-1.929-.29-2.561-.871-.624-.58-.936-1.378-.936-2.392zm12.045 3.263c-.996 0-1.811-.264-2.444-.793-.641-.537-.966-1.304-.975-2.301h1.131c.009.65.226 1.157.65 1.521.425.355.984.533 1.677.533.642 0 1.136-.147 1.482-.442.356-.303.533-.732.533-1.287 0-.494-.169-.88-.507-1.157-.329-.277-.788-.416-1.378-.416h-1.274v-1.001h1.274c.52 0 .923-.126 1.209-.377.295-.26.442-.624.442-1.092 0-.485-.169-.88-.507-1.183-.329-.303-.788-.455-1.378-.455-.624 0-1.118.178-1.482.533-.364.355-.546.862-.546 1.521h-1.131c.018-1.023.312-1.79.884-2.301.581-.529 1.339-.793 2.275-.793.954 0 1.695.238 2.223.715.538.485.806 1.105.806 1.859 0 1.005-.463 1.686-1.391 2.041.486.13.876.381 1.17.754.295.364.442.815.442 1.352 0 .84-.286 1.512-.858 2.015-.563.503-1.339.754-2.327.754zm5.282 1.664h-1.04v-2.86h.689a7.26 7.26 0 00.585-.884c.398-.745.598-1.855.598-3.328V56.9h5.356v8.099h1.118v2.86h-1.04V66h-6.266v1.859zm.871-2.86h4.186v-7.098h-3.185v2.886c0 .771-.057 1.439-.169 2.002-.104.572-.217 1.001-.338 1.287-.096.217-.26.524-.494.923zM253.472 66v-.377l1.001-2.08-3.211-6.266V56.9h1.053l2.73 5.382 2.366-5.382h1.001v.377L254.551 66h-1.079zm6.619 0h-1.079v-.377l2.951-4.29-2.795-4.056V56.9h1.144l2.353 3.549 2.431-3.549h1.066v.377l-2.808 4.056 2.977 4.29V66h-1.144l-2.548-3.77-2.548 3.77zm8.007 0h-1.04v-.377l3.393-8.723h1.131l3.406 8.723V66h-1.118l-.91-2.418h-3.926L268.098 66zm2.899-7.592l-1.625 4.212h3.237l-1.612-4.212zM283.883 66h-4.147v-9.1h3.822c.78 0 1.383.208 1.807.624.425.407.637.997.637 1.768 0 .98-.394 1.638-1.183 1.976 1.023.295 1.534 1.044 1.534 2.249 0 .797-.216 1.413-.65 1.846-.433.425-1.04.637-1.82.637zm-3.016-4.121v3.12h2.821c.494 0 .871-.134 1.131-.403.269-.269.403-.65.403-1.144 0-.503-.134-.888-.403-1.157-.26-.277-.637-.416-1.131-.416h-2.821zm0-3.978v3.016h2.522c.477 0 .841-.13 1.092-.39.26-.269.39-.641.39-1.118 0-.485-.13-.858-.39-1.118-.251-.26-.624-.39-1.118-.39h-2.496zm10.82 9.958h-1.04v-2.86h.689a7.26 7.26 0 00.585-.884c.399-.745.598-1.855.598-3.328V56.9h5.356v8.099h1.118v2.86h-1.04V66h-6.266v1.859zm.871-2.86h4.186v-7.098h-3.185v2.886c0 .771-.056 1.439-.169 2.002-.104.572-.216 1.001-.338 1.287-.095.217-.26.524-.494.923zm11.375.156c.737 0 1.313-.195 1.729-.585.425-.399.637-.927.637-1.586v-3.068c0-.659-.212-1.183-.637-1.573-.416-.399-.992-.598-1.729-.598-.745 0-1.326.2-1.742.598-.416.39-.624.914-.624 1.573v3.068c0 .659.208 1.187.624 1.586.416.39.997.585 1.742.585zm-3.497-2.223v-2.964c0-1.014.312-1.811.936-2.392.633-.58 1.487-.871 2.561-.871 1.075 0 1.924.29 2.548.871.633.58.949 1.378.949 2.392v2.964c0 1.014-.316 1.811-.949 2.392-.624.58-1.473.871-2.548.871-1.074 0-1.928-.29-2.561-.871-.624-.58-.936-1.378-.936-2.392zM310.675 66h-1.092v-9.1h1.092l2.938 4.615 2.938-4.615h1.053V66h-1.092v-7.098l-2.548 4.004h-.741l-2.548-3.991V66zm15.025 0h-5.681v-9.1h5.668v1.001h-4.537v3.016h3.926v1.001h-3.926v3.081h4.55V66zM87.249 82h-1.04v-9.1h1.131v7.137l4.563-7.137h1.04V82h-1.131v-7.137L87.249 82zm14.588-.845c.736 0 1.313-.195 1.729-.585.424-.399.637-.927.637-1.586v-3.068c0-.659-.213-1.183-.637-1.573-.416-.399-.993-.598-1.729-.598-.746 0-1.326.2-1.742.598-.416.39-.624.914-.624 1.573v3.068c0 .659.208 1.187.624 1.586.416.39.996.585 1.742.585zm-3.497-2.223v-2.964c0-1.014.312-1.811.936-2.392.632-.58 1.486-.871 2.561-.871 1.074 0 1.924.29 2.548.871.632.58.949 1.378.949 2.392v2.964c0 1.014-.317 1.811-.949 2.392-.624.58-1.474.871-2.548.871-1.075 0-1.929-.29-2.561-.871-.624-.58-.936-1.378-.936-2.392zm13.943 3.224h-1.131v-1.248h-.676c-1.014 0-1.85-.273-2.509-.819-.667-.546-1.001-1.296-1.001-2.249v-.949c0-.962.334-1.716 1.001-2.262.659-.546 1.495-.819 2.509-.819h.676v-1.092h1.131v1.092h.689c1.014 0 1.851.273 2.509.819.659.546.988 1.3.988 2.262v.949c0 .953-.329 1.703-.988 2.249-.658.546-1.495.819-2.509.819h-.689v1.248zm-1.859-2.249h.728v-5.096h-.728c-.702 0-1.265.195-1.69.585-.424.381-.637.884-.637 1.508v.897c0 .615.213 1.122.637 1.521.425.39.988.585 1.69.585zm1.859-5.096v5.096h.741c.702 0 1.266-.195 1.69-.585.425-.399.637-.906.637-1.521v-.897c0-.624-.212-1.127-.637-1.508-.424-.39-.988-.585-1.69-.585h-.741zM119.419 82h-1.04v-9.1h1.131v7.137l4.563-7.137h1.04V82h-1.131v-7.137L119.419 82zm11.337.195c-1.1 0-1.958-.286-2.574-.858-.606-.58-.91-1.387-.91-2.418v-2.938c0-1.031.304-1.833.91-2.405.616-.58 1.474-.871 2.574-.871.945 0 1.734.264 2.366.793.633.529.949 1.296.949 2.301v.13h-1.131v-.13c0-.667-.221-1.174-.663-1.521a2.343 2.343 0 00-1.534-.533c-.754 0-1.334.19-1.742.572-.398.373-.598.901-.598 1.586v3.094c0 .685.2 1.218.598 1.599.408.373.988.559 1.742.559.59 0 1.101-.178 1.534-.533.442-.347.663-.854.663-1.521v-.13h1.131v.13c0 1.005-.316 1.772-.949 2.301-.632.529-1.421.793-2.366.793zM141.783 82h-5.681v-9.1h5.668v1.001h-4.537v3.016h3.926v1.001h-3.926v3.081h4.55V82z" fill="#fff"/></svg>