<svg width="30" height="30" fill="none" xmlns="http://www.w3.org/2000/svg"><path d="M27.5 3.75h-25A2.502 2.502 0 000 6.25v17.5c0 1.379 1.121 2.5 2.5 2.5h25c1.379 0 2.5-1.121 2.5-2.5V6.25c0-1.379-1.121-2.5-2.5-2.5zM2.5 5h25c.092 0 .173.034.26.053-2.165 1.98-9.341 8.546-11.853 10.809-.197.177-.513.388-.907.388s-.71-.211-.908-.389C11.582 13.6 4.404 7.033 2.24 5.053c.087-.02.168-.053.26-.053zM1.25 23.75V6.25c0-.122.037-.234.07-.345 1.657 1.516 6.664 6.097 9.911 9.05-3.236 2.78-8.245 7.528-9.915 9.12-.03-.105-.066-.21-.066-.325zM27.5 25h-25c-.1 0-.189-.035-.282-.057 1.726-1.645 6.766-6.421 9.946-9.141.415.376.793.719 1.092.988.515.465 1.118.71 1.744.71.626 0 1.23-.245 1.744-.71l1.092-.988c3.18 2.72 8.22 7.495 9.946 9.14-.093.023-.182.058-.282.058zm1.25-1.25c0 .116-.037.22-.066.326-1.67-1.593-6.679-6.342-9.915-9.121a5060.35 5060.35 0 009.911-9.05c.033.111.07.223.07.345v17.5z" fill="#D79662"/></svg>