<svg width="77" height="96" fill="none" xmlns="http://www.w3.org/2000/svg"><path d="M38.5 0C59.776 0 77 17.361 77 38.809c0 16.34-9.118 30.638-24.316 36.766L38.5 96 24.316 75.575C9.119 69.445 0 55.148 0 38.807 0 17.363 17.224 0 38.5 0zm0 26.553c6.079 0 12.157 6.128 12.157 12.255 0 6.128-6.079 12.255-12.157 12.255-6.08 0-12.158-6.128-12.158-12.255 0-6.128 6.08-12.255 12.158-12.255zm0-14.297c-14.184 0-26.343 12.255-26.343 26.553 0 14.297 12.158 26.553 26.343 26.553 14.184 0 26.342-12.255 26.342-26.553S52.684 12.256 38.5 12.256z" fill="#151415"/></svg>