<svg width="20" height="20" fill="none" xmlns="http://www.w3.org/2000/svg"><g clip-path="url(#clip0_1_120)"><path d="M19.68 9.223L12.458 2a1.086 1.086 0 00-.774-.32c-.294 0-.568.114-.774.32l-.656.656a1.108 1.108 0 000 1.557l4.213 4.223H1.08C.477 8.436 0 8.908 0 9.512v.928c0 .603.477 1.123 1.08 1.123h13.435l-4.261 4.247a1.07 1.07 0 00-.32.767c0 .292.114.564.32.77l.656.654c.206.206.48.318.774.318.293 0 .568-.114.774-.32l7.222-7.222A1.09 1.09 0 0020 10c0-.294-.113-.57-.32-.777z" fill="#858585"/></g><defs><clipPath id="clip0_1_120"><path fill="#fff" d="M0 0h20v20H0z"/></clipPath></defs></svg>