<svg width="20" height="20" fill="none" xmlns="http://www.w3.org/2000/svg"><g clip-path="url(#clip0_1_117)"><path d="M.32 9.223L7.542 2a1.09 1.09 0 01.774-.32c.294 0 .568.114.774.32l.656.656a1.108 1.108 0 010 1.557L5.533 8.436h13.386c.604 0 1.081.472 1.081 1.076v.928c0 .603-.477 1.123-1.08 1.123H5.484l4.261 4.247a1.08 1.08 0 010 1.537L9.09 18c-.206.206-.48.318-.774.318-.293 0-.568-.114-.774-.32L.32 10.777A1.087 1.087 0 010 10c0-.294.113-.57.32-.777z" fill="#858585"/></g><defs><clipPath id="clip0_1_117"><path fill="#fff" transform="matrix(-1 0 0 1 20 0)" d="M0 0h20v20H0z"/></clipPath></defs></svg>