<svg width="40" height="27" fill="none" xmlns="http://www.w3.org/2000/svg"><path d="M18.752 12.553c-.053.68-.053 1.255-.16 1.883a15.357 15.357 0 01-2.55 6.695c-.637.994-1.434 1.83-2.284 2.615-.85.733-1.753 1.413-2.762 1.936-.266.157-.584.261-.85.418-.16.052-.266.157-.425.21-.584.208-1.169.418-1.753.575-.16.052-.319.052-.478.104-.531.105-.744-.575-.319-.837.107-.052.213-.157.372-.209.425-.262.797-.575 1.169-.89.16-.156.319-.313.531-.47.16-.157.319-.314.478-.523.638-.68 1.116-1.464 1.54-2.249.426-.785.691-1.621.904-2.458.053-.157.053-.314.106-.419.053-.261-.16-.523-.478-.523H5.046C2.284 18.411 0 16.214 0 13.442V4.97C0 2.249 2.231 0 5.046 0h8.606c2.762 0 5.046 2.197 5.046 4.969v5.44c0 .261 0 .575.054.836v1.309zm21.248 0c-.053.68-.053 1.255-.16 1.883a15.356 15.356 0 01-2.55 6.695c-.637.994-1.433 1.83-2.283 2.615-.85.733-1.753 1.413-2.763 1.936-.265.157-.584.261-.85.418-.159.052-.265.157-.424.21-.585.208-1.17.418-1.753.575-.16.052-.32.052-.479.104-.53.105-.743-.575-.318-.837.106-.052.212-.157.371-.209.425-.262.797-.575 1.17-.89.159-.156.318-.313.53-.47.16-.157.32-.314.479-.523.637-.68 1.115-1.464 1.54-2.249.425-.785.69-1.621.903-2.458.053-.157.053-.314.106-.419.053-.261-.16-.523-.478-.523h-6.746c-2.763 0-5.047-2.197-5.047-4.969V4.97c0-2.721 2.232-4.97 5.047-4.97H34.9c2.763 0 5.047 2.197 5.047 4.969v5.44c0 .261 0 .575.053.836v1.309z" fill="#D79662"/></svg>