<svg width="30" height="30" fill="none" xmlns="http://www.w3.org/2000/svg"><g clip-path="url(#clip0_1_201)"><path d="M15 0C6.729 0 0 6.729 0 15a14.93 14.93 0 003.437 9.544c.006.008.006.017.012.024a14.996 14.996 0 005.664 4.226l.075.033c.175.074.352.142.53.21l.212.079a14.846 14.846 0 001.545.461 13.581 13.581 0 00.799.169c.114.021.227.043.342.062.158.025.316.045.475.066.103.013.205.027.308.039.18.018.361.032.543.044.085.006.168.015.253.02a14.267 14.267 0 001.61.001c.085-.005.17-.014.254-.02.182-.012.363-.025.543-.044.104-.012.206-.027.308-.04.159-.02.317-.04.475-.066.114-.018.228-.04.342-.061.142-.026.284-.052.424-.082a16.264 16.264 0 001.457-.392c.155-.05.31-.101.463-.157.071-.025.141-.052.211-.078.179-.067.356-.137.532-.21l.074-.032a15 15 0 005.664-4.227c.006-.007.006-.017.012-.024A14.939 14.939 0 0030 15c0-8.271-6.729-15-15-15zm6.078 27.61l-.021.011c-.179.086-.36.167-.543.246l-.124.053a13.564 13.564 0 01-1.4.497 12.63 12.63 0 01-.727.195c-.118.028-.235.057-.354.082-.129.027-.26.05-.39.074-.105.02-.21.04-.316.057-.147.023-.295.041-.442.06-.094.012-.187.026-.281.036-.169.018-.339.03-.508.041-.076.006-.151.014-.227.018a14.186 14.186 0 01-1.489 0c-.076-.004-.151-.012-.227-.018a13.12 13.12 0 01-.508-.041c-.095-.01-.188-.024-.281-.036-.148-.019-.296-.037-.442-.06-.107-.017-.212-.037-.317-.057a14.13 14.13 0 01-.39-.075c-.118-.024-.236-.053-.353-.081-.112-.027-.224-.053-.335-.083a14.695 14.695 0 01-1.792-.609c-.042-.017-.082-.035-.123-.053a13.988 13.988 0 01-.566-.257 14.068 14.068 0 01-4.536-3.497 11.036 11.036 0 017.222-7.569c.07.043.143.08.214.12.042.024.084.049.126.071.149.08.3.154.454.22.119.052.242.096.364.141l.072.026A6.46 6.46 0 0015 17.5a6.43 6.43 0 002.162-.378l.072-.026c.122-.045.244-.089.363-.141.154-.066.305-.14.454-.22l.127-.07c.071-.04.144-.078.214-.121a11.039 11.039 0 017.223 7.569 14.082 14.082 0 01-4.537 3.497zM9.5 11c0-3.032 2.467-5.5 5.5-5.5 3.032 0 5.5 2.468 5.5 5.5a5.496 5.496 0 01-3.12 4.951l-.075.036a5.626 5.626 0 01-4.61 0l-.075-.036A5.496 5.496 0 019.5 11zm16.864 12.162a12.047 12.047 0 00-7.023-7.337A6.48 6.48 0 0021.5 11c0-3.584-2.916-6.5-6.5-6.5A6.508 6.508 0 008.5 11a6.48 6.48 0 002.16 4.825 12.049 12.049 0 00-7.024 7.337A13.918 13.918 0 011 15C1 7.28 7.28 1 15 1s14 6.28 14 14c0 3.044-.98 5.862-2.636 8.162z" fill="#D79662"/></g><defs><clipPath id="clip0_1_201"><path fill="#fff" d="M0 0h30v30H0z"/></clipPath></defs></svg>