<svg width="43" height="42" fill="none" xmlns="http://www.w3.org/2000/svg"><g fill="#000"><path d="M41.664 24.192c-.21-.084-.42 0-.588.168l-6.636 7.98h-.63v-7.686c0-.21-.126-.42-.336-.462-.21-.084-.42 0-.588.168l-7.14 8.61a.477.477 0 00-.126.336v8.19c0 .294.21.504.504.504h8.19c.084 0 .126 0 .21-.042 0 0 .042 0 .042-.042.042-.042.084-.042.126-.084l7.182-8.652a.477.477 0 00.126-.336v-8.19c0-.21-.126-.378-.336-.462zm-8.904 1.89v6.762c0 .294.21.504.504.504h.504v7.602h-7.14v-7.476l6.132-7.392zm8.232 6.594l-6.174 7.392v-6.594l.168-.21a.43.43 0 00.21-.252l5.796-6.972v6.636zM41.916.252s0-.042-.042-.042c-.042-.084-.126-.126-.21-.168h-.042C41.58 0 41.538 0 41.496 0h-4.2a.532.532 0 00-.378.168L28.77 9.996h-3.234V6.72l4.83-5.88c.126-.168.168-.378.084-.546C30.324.126 30.156 0 29.946 0H25.83a.532.532 0 00-.378.168l-6.468 7.854V.798c0-.21-.126-.42-.336-.462-.21-.084-.42 0-.588.168l-9.744 11.97a.477.477 0 00-.126.336v7.686H1.596L10.71 9.324a.477.477 0 00.126-.336V.798c0-.21-.126-.42-.336-.462-.21-.084-.42 0-.588.168L.126 12.474A.477.477 0 000 12.81V21c0 .084.042.168.084.252 0 0 0 .042.042.042.042.084.126.126.21.168.042 0 .126.042.168.042h7.35L.126 30.912c-.042.042-.042.042-.042.084s-.042.042-.042.084v10.374c0 .294.21.504.504.504h15.372c.084 0 .126 0 .21-.042l.042-.042c.042-.042.084-.042.126-.084l25.62-30.744a.477.477 0 00.126-.336V.504l-.126-.252zm-4.368.756h2.856l-24.78 29.736h-2.772L37.548 1.008zM9.24 12.978l8.736-10.71V8.82L9.24 19.572v-6.594zm-8.232 0l8.778-10.71V8.82L1.008 19.572v-6.594zm25.116-11.97h2.772L4.368 30.744H1.596L26.124 1.008zM1.008 31.752H4.62a.532.532 0 00.378-.168L24.486 7.938V10.5c0 .294.21.504.504.504h2.898L11.382 30.912c-.126.168-.168.378-.084.546a.516.516 0 00.462.294h3.57v9.198H1.008v-9.198zm39.984-21.168L16.38 40.068v-8.652L40.992 1.932v8.652z"/><path d="M11.76 32.76c-2.016 0-3.57 1.134-3.57 2.562s1.596 2.562 3.57 2.562c1.974 0 3.57-1.134 3.57-2.562.042-1.428-1.554-2.562-3.57-2.562zm0 4.116c-1.386 0-2.562-.714-2.562-1.554 0-.84 1.176-1.554 2.562-1.554s2.562.714 2.562 1.554c0 .84-1.134 1.554-2.562 1.554z"/></g></svg>