<svg width="41" height="41" fill="none" xmlns="http://www.w3.org/2000/svg"><path d="M20.5 2.929c-9.689 0-17.571 7.882-17.571 17.571 0 9.689 7.882 17.572 17.571 17.572 9.689 0 17.571-7.883 17.571-17.572S30.19 2.93 20.5 2.93zm15.375 18.303h.715a16.045 16.045 0 01-4.2 10.123l-.5-.5a.732.732 0 00-1.036 1.035l.5.5a16.045 16.045 0 01-10.122 4.2v-.715a.732.732 0 00-1.464 0v.715a16.045 16.045 0 01-10.122-4.2l.5-.5a.732.732 0 00-1.035-1.036l-.5.5a16.045 16.045 0 01-4.2-10.122h.714a.732.732 0 000-1.464H4.41a16.045 16.045 0 014.2-10.122l.5.5a.732.732 0 101.036-1.035l-.5-.5a16.045 16.045 0 0110.122-4.2v.714a.732.732 0 101.464 0V4.41a16.046 16.046 0 0110.123 4.2l-.5.5a.732.732 0 101.035 1.036l.5-.5a16.045 16.045 0 014.2 10.122h-.715a.732.732 0 100 1.464z" fill="#000"/><path d="M19.768 19.035c0-.883-.585-2.196-2.197-2.196-1.611 0-2.196 1.313-2.196 2.196a.731.731 0 101.464.009c.01-.154.05-.304.12-.44.082-.15.219-.3.613-.3.393 0 .53.15.612.3a.976.976 0 01.092.25l-2.778 4.168a.732.732 0 00.61 1.138h2.928a.732.732 0 100-1.464h-1.56l2.169-3.255a.732.732 0 00.123-.406z" fill="#000"/><path d="M23.429 24.16a.732.732 0 00.732-.732v-.732h.732a.732.732 0 000-1.464h-.732V17.57a.732.732 0 00-1.342-.406l-2.928 4.393a.732.732 0 00.609 1.138h2.196v.732a.732.732 0 00.733.732zm-1.561-2.928l.828-1.243v1.243h-.828z" fill="#000"/><path d="M31.697 19.982l-.22.219A10.982 10.982 0 1020.5 31.48a10.884 10.884 0 007.987-3.444.733.733 0 10-1.065-1.005 9.418 9.418 0 01-6.19 2.958v-.705a.732.732 0 00-1.464 0v.705a9.533 9.533 0 01-8.758-8.758h.704a.732.732 0 000-1.464h-.704a9.533 9.533 0 018.758-8.758v.704a.732.732 0 001.464 0v-.704a9.53 9.53 0 018.78 9.18l-.209-.208a.732.732 0 00-1.035 1.035l1.464 1.465a.73.73 0 001.036 0l1.464-1.465a.732.732 0 00-1.035-1.035z" fill="#000"/><path d="M20.5 0C9.178 0 0 9.178 0 20.5S9.178 41 20.5 41 41 31.822 41 20.5 31.822 0 20.5 0zm0 39.536c-10.496 0-19.036-8.54-19.036-19.036 0-10.496 8.54-19.036 19.036-19.036 10.496 0 19.036 8.54 19.036 19.036 0 10.496-8.54 19.036-19.036 19.036z" fill="#000"/></svg>