<svg width="42" height="42" fill="none" xmlns="http://www.w3.org/2000/svg"><g fill="#000"><path d="M5.416 4.714a.7.7 0 00-.495.207.7.7 0 00-.207.495v4.908a.7.7 0 00.207.495c.127.126.29.196.484.196.193 0 .38-.07.506-.196a.717.717 0 00.196-.505l.01-3.208L20.01 21 6.117 34.893l-.01-3.207a.717.717 0 00-.196-.505.716.716 0 00-.506-.196.665.665 0 00-.484.196.7.7 0 00-.207.495v4.908a.7.7 0 00.207.495.7.7 0 00.495.207h4.908a.7.7 0 00.495-.207.664.664 0 00.196-.484c0-.193-.07-.38-.196-.506a.717.717 0 00-.505-.196l-3.207-.01L21 21.99l13.893 13.893-3.207.01a.716.716 0 00-.505.196.716.716 0 00-.196.506c0 .193.07.357.196.484a.7.7 0 00.495.207h4.908a.7.7 0 00.495-.207.7.7 0 00.207-.495v-4.908a.7.7 0 00-.207-.495.664.664 0 00-.484-.196c-.193 0-.38.07-.506.196a.716.716 0 00-.196.505l-.01 3.207L21.99 21 35.883 7.106l.01 3.208c0 .193.07.378.196.505a.716.716 0 00.506.196c.193 0 .357-.07.484-.196a.7.7 0 00.207-.495V5.416a.7.7 0 00-.207-.495.7.7 0 00-.495-.207h-4.908a.7.7 0 00-.495.207.664.664 0 00-.196.484c0 .193.07.379.196.506a.717.717 0 00.505.196l3.207.01L21 20.01 7.107 6.117l3.207-.01a.723.723 0 00.505-.196.716.716 0 00.196-.506.665.665 0 00-.196-.484.7.7 0 00-.495-.207H5.416z"/><path d="M41.3 42a.7.7 0 00.7-.7V.7a.7.7 0 00-.7-.7H.7a.7.7 0 00-.7.7v40.6a.7.7 0 00.7.7h40.6zm-.7-1.4H1.4V1.4h39.2v39.2z"/></g></svg>