<svg width="41" height="41" fill="none" xmlns="http://www.w3.org/2000/svg"><path d="M30.763 26.078v14.26a.662.662 0 01-.661.662H.662A.662.662 0 010 40.339V.66A.66.66 0 01.661 0h29.44c.366 0 .662.296.662.661v17.05l2.936-4.377-.82-.55a.66.66 0 01.733-1.095l.82.55.891-1.327a2.328 2.328 0 013.233-.638 2.33 2.33 0 01.64 3.234l-.892 1.328 1.483.995a.66.66 0 01.181.914l-4.082 6.087a.66.66 0 01-1.096-.733l3.716-5.54-.936-.628-6.807 10.147zM5.61 25.233a.662.662 0 010-1.323H20.5a.662.662 0 010 1.323H5.61zm0-3.52a.662.662 0 010-1.323h19.544a.662.662 0 010 1.323H5.61zm0-3.52a.662.662 0 010-1.323h19.544a.662.662 0 010 1.323H5.61zm0-3.52a.662.662 0 010-1.322h19.544a.662.662 0 010 1.322H5.61zm0-3.52a.662.662 0 010-1.322h19.544a.662.662 0 010 1.322H5.61zm4.065-4.34a.662.662 0 010-1.323h11.413a.662.662 0 010 1.323H9.675zm-.729 28.442a.661.661 0 01-.682-1.13c2.302-1.386 3.938-2.015 4.904-1.887.915.121 1.355.666 1.321 1.633.71-.31 1.523-.465 2.438-.465 1.53 0 3.359.44 5.485 1.322a.66.66 0 01-.507 1.22c-1.959-.813-3.619-1.22-4.978-1.22-1.244 0-2.224.349-2.94 1.043a.663.663 0 01-1.121-.656c.36-1.01.404-1.534.131-1.57-.66-.087-2.012.483-4.05 1.71zm17.115-8.168l1.681 1.128 8.733-13.018-1.682-1.128-8.732 13.018zm.947 2.223l-1.682-1.129-1.198 1.787-.26 2.207 1.94-1.076 1.2-1.79zm8.52-16.336l1.681 1.128.89-1.328c.154-.23.2-.504.15-.76a1.01 1.01 0 00-.426-.644 1.01 1.01 0 00-.76-.15c-.255.05-.49.196-.644.425l-.891 1.329zm-6.088 6.708V1.322H1.323v38.355H29.44V28.05l-2.626 3.915a.655.655 0 01-.245.219l-3.188 1.768a.66.66 0 01-.975-.654l.428-3.64a.654.654 0 01.133-.325l6.473-9.651z" fill="#000"/></svg>