<svg width="40" height="41" fill="none" xmlns="http://www.w3.org/2000/svg"><path d="M7.212 10.748h4.073a.49.49 0 010 .978H7.702v3.567h3.567v-.636a.49.49 0 01.84-.356.49.49 0 01.138.356v1.124a.486.486 0 01-.489.49H7.212a.489.489 0 01-.489-.49v-4.546a.489.489 0 01.49-.487zm1.933 2.1a.49.49 0 00-.692.692l1.231 1.23a.49.49 0 00.692 0l3.113-3.112a.489.489 0 10-.691-.692l-2.766 2.767-.887-.886zm6.348-.27h4.83a.489.489 0 100-.978h-4.83a.49.49 0 100 .978zm0 2.841h8.523a.49.49 0 000-.978h-8.523a.488.488 0 100 .978zm-8.28 9.293h4.546a.489.489 0 00.488-.488v-1.126a.49.49 0 00-.68-.465.49.49 0 00-.298.465v.637H7.702v-3.569h3.583a.489.489 0 100-.978H7.212a.489.489 0 00-.488.49v4.546a.489.489 0 00.488.488zm5.583-5.305l-2.766 2.765-.885-.885a.49.49 0 10-.692.692l1.231 1.23a.49.49 0 00.692 0l3.113-3.11a.489.489 0 00-.691-.692h-.002zm2.697 1.611h4.83a.49.49 0 100-.978h-4.83a.49.49 0 000 .979zm0 2.841h8.523a.489.489 0 000-.978h-8.523a.49.49 0 100 .978zm-3.735 7.19a.49.49 0 00-.489.489v.637H7.702v-3.569h3.583a.489.489 0 100-.978H7.212a.49.49 0 00-.488.49v4.546a.489.489 0 00.488.488h4.547a.488.488 0 00.489-.488v-1.126a.491.491 0 00-.49-.49zm1.038-3.202l-2.766 2.766-.885-.886a.489.489 0 10-.692.692l1.231 1.231a.488.488 0 00.692 0l3.113-3.112a.489.489 0 10-.691-.691h-.002zm2.697 1.611h4.83a.49.49 0 000-.978h-4.83a.489.489 0 100 .979zm0 2.842h5.281a.49.49 0 000-.979h-5.281a.49.49 0 000 .979zm21.101 6.218a8.447 8.447 0 01-5.99 2.477c-.085 0-.169 0-.253-.004a.487.487 0 01-.091.009H.49a.489.489 0 01-.49-.49V3.389a.489.489 0 01.49-.487h13.194v-.955A1.866 1.866 0 0116.28.15a1.864 1.864 0 011.13 1.796v.955h13.195a.488.488 0 01.488.489v20.686a8.467 8.467 0 015.502 14.444v-.002zm-6.48-34.64h-9.201v1.864h6.852a.489.489 0 01.49.489v18.16a8.498 8.498 0 011.863-.32l-.003-20.193zM10.18 7.934V6.72H3.82v30.461h19.704a8.487 8.487 0 011.09-10.644 8.425 8.425 0 012.661-1.8V6.72h-6.361v1.216a.489.489 0 01-.49.489H10.67a.488.488 0 01-.49-.49zm.978-4.056v3.57h8.775v-3.57h-3.014a.489.489 0 01-.489-.49V1.946a.886.886 0 00-1.227-.835.883.883 0 00-.54.835V3.39a.49.49 0 01-.492.488h-3.013zm15.493 36.144a8.453 8.453 0 01-2.377-1.864H3.33a.49.49 0 01-.489-.49V6.23a.49.49 0 01.49-.49h6.85V3.876H.977V40.02l25.673.002zm9.252-12.794a7.495 7.495 0 100 10.599 7.502 7.502 0 000-10.599zm.205 2.746a1.472 1.472 0 01-.433 1.047l-5.109 5.108a1.486 1.486 0 01-2.096 0l-2.937-2.936a1.486 1.486 0 010-2.097 1.484 1.484 0 012.096 0l1.889 1.89 4.06-4.06a1.48 1.48 0 012.53 1.048zm-.978 0a.503.503 0 00-.86-.357l-4.406 4.406a.49.49 0 01-.691 0l-2.235-2.235a.506.506 0 00-.713 0 .507.507 0 000 .713l2.937 2.937a.506.506 0 00.713 0l5.108-5.108a.5.5 0 00.147-.356z" fill="#000"/></svg>